<svg xmlns="http://www.w3.org/2000/svg" viewBox="0 0 880 380" width="880" height="380">
    <defs>
        <style>
            .axis { stroke: black; stroke-width: 1; }
            .axis-bold { stroke: black; stroke-width: 1.2; fill: none; }
            .grid { stroke: #e0e0e0; stroke-width: 1; stroke-dasharray: 2,2; }
            .text-title { font-family: "Times New Roman", Times, serif; font-size: 14px; text-anchor: middle; }
            .text-label { font-family: "Arial", sans-serif; font-size: 10px; text-anchor: middle; }
            .text-legend { font-family: "Arial", sans-serif; font-size: 10px; }
            .line-blue { stroke: #1f77b4; stroke-width: 1.5; fill: none; }
            .line-orange { stroke: #ff7f0e; stroke-width: 1.5; fill: none; }
            .line-blue-dash { stroke: #1f77b4; stroke-width: 1; fill: none; stroke-dasharray: 3,3; }
            .line-orange-dash { stroke: #ff7f0e; stroke-width: 1; fill: none; stroke-dasharray: 3,3; }
            .dot-blue { fill: #1f77b4; }
            .dot-orange { fill: #ff7f0e; }
        </style>
    </defs>
    <rect width="100%" height="100%" fill="white"/>
    <rect x="60" y="20" width="300" height="200" class="axis-bold" />
<line x1="60" y1="220.0" x2="360" y2="220.0" class="grid" />
<text x="45" y="224.0" class="text-label" text-anchor="end">0.32</text>
<line x1="60" y1="220.0" x2="64" y2="220.0" class="axis" />
<line x1="60" y1="169.99999999999997" x2="360" y2="169.99999999999997" class="grid" />
<text x="45" y="173.99999999999997" class="text-label" text-anchor="end">0.34</text>
<line x1="60" y1="169.99999999999997" x2="64" y2="169.99999999999997" class="axis" />
<line x1="60" y1="120.00000000000006" x2="360" y2="120.00000000000006" class="grid" />
<text x="45" y="124.00000000000006" class="text-label" text-anchor="end">0.36</text>
<line x1="60" y1="120.00000000000006" x2="64" y2="120.00000000000006" class="axis" />
<line x1="60" y1="70.00000000000003" x2="360" y2="70.00000000000003" class="grid" />
<text x="45" y="74.00000000000003" class="text-label" text-anchor="end">0.38</text>
<line x1="60" y1="70.00000000000003" x2="64" y2="70.00000000000003" class="axis" />
<line x1="60" y1="20.0" x2="360" y2="20.0" class="grid" />
<text x="45" y="24.0" class="text-label" text-anchor="end">0.4</text>
<line x1="60" y1="20.0" x2="64" y2="20.0" class="axis" />
<text x="375" y="224.0" class="text-label" text-anchor="start">10000</text>
<line x1="356" y1="220.0" x2="360" y2="220.0" class="axis" />
<text x="375" y="195.42857142857142" class="text-label" text-anchor="start">10250</text>
<line x1="356" y1="191.42857142857142" x2="360" y2="191.42857142857142" class="axis" />
<text x="375" y="166.85714285714286" class="text-label" text-anchor="start">10500</text>
<line x1="356" y1="162.85714285714286" x2="360" y2="162.85714285714286" class="axis" />
<text x="375" y="138.28571428571428" class="text-label" text-anchor="start">10750</text>
<line x1="356" y1="134.28571428571428" x2="360" y2="134.28571428571428" class="axis" />
<text x="375" y="109.71428571428571" class="text-label" text-anchor="start">11000</text>
<line x1="356" y1="105.71428571428571" x2="360" y2="105.71428571428571" class="axis" />
<text x="375" y="81.14285714285714" class="text-label" text-anchor="start">11250</text>
<line x1="356" y1="77.14285714285714" x2="360" y2="77.14285714285714" class="axis" />
<text x="375" y="52.571428571428584" class="text-label" text-anchor="start">11500</text>
<line x1="356" y1="48.571428571428584" x2="360" y2="48.571428571428584" class="axis" />
<text x="375" y="24.0" class="text-label" text-anchor="start">11750</text>
<line x1="356" y1="20.0" x2="360" y2="20.0" class="axis" />
<text x="60.0" y="235" class="text-label">0</text>
<line x1="60.0" y1="216" x2="60.0" y2="220" class="axis" />
<text x="102.85714285714286" y="235" class="text-label">200</text>
<line x1="102.85714285714286" y1="216" x2="102.85714285714286" y2="220" class="axis" />
<text x="145.71428571428572" y="235" class="text-label">400</text>
<line x1="145.71428571428572" y1="216" x2="145.71428571428572" y2="220" class="axis" />
<text x="188.57142857142858" y="235" class="text-label">600</text>
<line x1="188.57142857142858" y1="216" x2="188.57142857142858" y2="220" class="axis" />
<text x="231.42857142857142" y="235" class="text-label">800</text>
<line x1="231.42857142857142" y1="216" x2="231.42857142857142" y2="220" class="axis" />
<text x="274.2857142857143" y="235" class="text-label">1000</text>
<line x1="274.2857142857143" y1="216" x2="274.2857142857143" y2="220" class="axis" />
<text x="317.14285714285717" y="235" class="text-label">1200</text>
<line x1="317.14285714285717" y1="216" x2="317.14285714285717" y2="220" class="axis" />
<text x="360.0" y="235" class="text-label">1400</text>
<line x1="360.0" y1="216" x2="360.0" y2="220" class="axis" />
<text x="210.0" y="255" class="text-label">Steps</text>
<text x="15" y="120.0" class="text-label" transform="rotate(-90 15 120.0)">Accuracy</text>
<text x="415" y="120.0" class="text-label" transform="rotate(-90 415 120.0)"># Tokens</text>
<text x="210.0" y="275" class="text-title">(a) BrowseComp Training Curve</text>
<clipPath id="clip_60_20"><rect x="60" y="20" width="300" height="200" /></clipPath>
<g clip-path="url(#clip_60_20)">
<polyline points="60.0,151.42857142857144 81.42857142857143,157.14285714285714 102.85714285714286,174.28571428571428 124.28571428571429,168.57142857142856 145.71428571428572,140.0 167.14285714285714,128.57142857142856 188.57142857142858,140.0 210.0,145.71428571428572 231.42857142857142,151.42857142857144 252.85714285714286,191.42857142857142 274.2857142857143,82.85714285714286 295.7142857142857,37.14285714285714 317.14285714285717,128.57142857142856 338.57142857142856,20.0 360.0,77.14285714285714" class="line-blue-dash" />
<polyline points="60.0,162.85714285714286 81.42857142857143,197.14285714285714 102.85714285714286,185.71428571428572 124.28571428571429,208.57142857142858 145.71428571428572,185.71428571428572 167.14285714285714,208.57142857142858 188.57142857142858,202.85714285714286 210.0,197.14285714285714 231.42857142857142,180.0 252.85714285714286,162.85714285714286 274.2857142857143,140.0 295.7142857142857,174.28571428571428 317.14285714285717,191.42857142857142 338.57142857142856,134.28571428571428 360.0,191.42857142857142" class="line-orange-dash" />
<circle cx="60.0" cy="220.0" r="2.5" class="dot-blue" />
<circle cx="81.42857142857143" cy="120.00000000000006" r="2.5" class="dot-blue" />
<circle cx="102.85714285714286" cy="70.00000000000003" r="2.5" class="dot-blue" />
<circle cx="124.28571428571429" cy="145.00000000000009" r="2.5" class="dot-blue" />
<circle cx="145.71428571428572" cy="120.00000000000006" r="2.5" class="dot-blue" />
<circle cx="167.14285714285714" cy="107.50000000000007" r="2.5" class="dot-blue" />
<circle cx="188.57142857142858" cy="120.00000000000006" r="2.5" class="dot-blue" />
<circle cx="210.0" cy="82.50000000000006" r="2.5" class="dot-blue" />
<circle cx="231.42857142857142" cy="90.00000000000006" r="2.5" class="dot-blue" />
<circle cx="252.85714285714286" cy="70.00000000000003" r="2.5" class="dot-blue" />
<circle cx="274.2857142857143" cy="145.00000000000009" r="2.5" class="dot-blue" />
<circle cx="295.7142857142857" cy="107.50000000000007" r="2.5" class="dot-blue" />
<circle cx="317.14285714285717" cy="57.50000000000003" r="2.5" class="dot-blue" />
<circle cx="338.57142857142856" cy="32.50000000000003" r="2.5" class="dot-blue" />
<circle cx="360.0" cy="20.0" r="2.5" class="dot-blue" />
<polyline points="60.0,220.0 81.42857142857143,120.00000000000006 102.85714285714286,70.00000000000003 124.28571428571429,145.00000000000009 145.71428571428572,120.00000000000006 167.14285714285714,107.50000000000007 188.57142857142858,120.00000000000006 210.0,82.50000000000006 231.42857142857142,90.00000000000006 252.85714285714286,70.00000000000003 274.2857142857143,145.00000000000009 295.7142857142857,107.50000000000007 317.14285714285717,57.50000000000003 338.57142857142856,32.50000000000003 360.0,20.0" class="line-blue" />
<circle cx="60.0" cy="194.99999999999997" r="2.5" class="dot-orange" />
<circle cx="81.42857142857143" cy="169.99999999999997" r="2.5" class="dot-orange" />
<circle cx="102.85714285714286" cy="194.99999999999997" r="2.5" class="dot-orange" />
<circle cx="124.28571428571429" cy="157.5000000000001" r="2.5" class="dot-orange" />
<circle cx="145.71428571428572" cy="132.50000000000009" r="2.5" class="dot-orange" />
<circle cx="167.14285714285714" cy="169.99999999999997" r="2.5" class="dot-orange" />
<circle cx="188.57142857142858" cy="182.49999999999997" r="2.5" class="dot-orange" />
<circle cx="210.0" cy="100.00000000000006" r="2.5" class="dot-orange" />
<circle cx="231.42857142857142" cy="95.00000000000004" r="2.5" class="dot-orange" />
<circle cx="252.85714285714286" cy="70.00000000000003" r="2.5" class="dot-orange" />
<circle cx="274.2857142857143" cy="107.50000000000007" r="2.5" class="dot-orange" />
<circle cx="295.7142857142857" cy="57.50000000000003" r="2.5" class="dot-orange" />
<circle cx="317.14285714285717" cy="95.00000000000004" r="2.5" class="dot-orange" />
<circle cx="338.57142857142856" cy="32.50000000000003" r="2.5" class="dot-orange" />
<circle cx="360.0" cy="45.0" r="2.5" class="dot-orange" />
<polyline points="60.0,194.99999999999997 81.42857142857143,169.99999999999997 102.85714285714286,194.99999999999997 124.28571428571429,157.5000000000001 145.71428571428572,132.50000000000009 167.14285714285714,169.99999999999997 188.57142857142858,182.49999999999997 210.0,100.00000000000006 231.42857142857142,95.00000000000004 252.85714285714286,70.00000000000003 274.2857142857143,107.50000000000007 295.7142857142857,57.50000000000003 317.14285714285717,95.00000000000004 338.57142857142856,32.50000000000003 360.0,45.0" class="line-orange" />
</g>
<rect x="70" y="30" width="180" height="40" fill="white" stroke="#ccc" stroke-width="1" />
<line x1="80" y1="42" x2="100" y2="42" class="line-blue" />
<circle cx="90" cy="42" r="2" class="dot-blue" />
<text x="105" y="45" class="text-legend">Single Expert (GPT-5.4)</text>
<line x1="80" y1="58" x2="100" y2="58" class="line-orange" />
<circle cx="90" cy="58" r="2" class="dot-orange" />
<text x="105" y="61" class="text-legend">Council Synthesis</text>
<rect x="480" y="20" width="300" height="200" class="axis-bold" />
<line x1="480" y1="220.0" x2="780" y2="220.0" class="grid" />
<text x="465" y="224.0" class="text-label" text-anchor="end">0.64</text>
<line x1="480" y1="220.0" x2="484" y2="220.0" class="axis" />
<line x1="480" y1="170.0" x2="780" y2="170.0" class="grid" />
<text x="465" y="174.0" class="text-label" text-anchor="end">0.65</text>
<line x1="480" y1="170.0" x2="484" y2="170.0" class="axis" />
<line x1="480" y1="120.0" x2="780" y2="120.0" class="grid" />
<text x="465" y="124.0" class="text-label" text-anchor="end">0.66</text>
<line x1="480" y1="120.0" x2="484" y2="120.0" class="axis" />
<line x1="480" y1="70.0" x2="780" y2="70.0" class="grid" />
<text x="465" y="74.0" class="text-label" text-anchor="end">0.67</text>
<line x1="480" y1="70.0" x2="484" y2="70.0" class="axis" />
<line x1="480" y1="20.0" x2="780" y2="20.0" class="grid" />
<text x="465" y="24.0" class="text-label" text-anchor="end">0.68</text>
<line x1="480" y1="20.0" x2="484" y2="20.0" class="axis" />
<text x="795" y="224.0" class="text-label" text-anchor="start">9000</text>
<line x1="776" y1="220.0" x2="780" y2="220.0" class="axis" />
<text x="795" y="184.0" class="text-label" text-anchor="start">10000</text>
<line x1="776" y1="180.0" x2="780" y2="180.0" class="axis" />
<text x="795" y="144.0" class="text-label" text-anchor="start">11000</text>
<line x1="776" y1="140.0" x2="780" y2="140.0" class="axis" />
<text x="795" y="104.0" class="text-label" text-anchor="start">12000</text>
<line x1="776" y1="100.0" x2="780" y2="100.0" class="axis" />
<text x="795" y="64.0" class="text-label" text-anchor="start">13000</text>
<line x1="776" y1="60.0" x2="780" y2="60.0" class="axis" />
<text x="795" y="24.0" class="text-label" text-anchor="start">14000</text>
<line x1="776" y1="20.0" x2="780" y2="20.0" class="axis" />
<text x="480.0" y="235" class="text-label">0</text>
<line x1="480.0" y1="216" x2="480.0" y2="220" class="axis" />
<text x="522.8571428571429" y="235" class="text-label">200</text>
<line x1="522.8571428571429" y1="216" x2="522.8571428571429" y2="220" class="axis" />
<text x="565.7142857142857" y="235" class="text-label">400</text>
<line x1="565.7142857142857" y1="216" x2="565.7142857142857" y2="220" class="axis" />
<text x="608.5714285714286" y="235" class="text-label">600</text>
<line x1="608.5714285714286" y1="216" x2="608.5714285714286" y2="220" class="axis" />
<text x="651.4285714285714" y="235" class="text-label">800</text>
<line x1="651.4285714285714" y1="216" x2="651.4285714285714" y2="220" class="axis" />
<text x="694.2857142857142" y="235" class="text-label">1000</text>
<line x1="694.2857142857142" y1="216" x2="694.2857142857142" y2="220" class="axis" />
<text x="737.1428571428571" y="235" class="text-label">1200</text>
<line x1="737.1428571428571" y1="216" x2="737.1428571428571" y2="220" class="axis" />
<text x="780.0" y="235" class="text-label">1400</text>
<line x1="780.0" y1="216" x2="780.0" y2="220" class="axis" />
<text x="630.0" y="255" class="text-label">Steps</text>
<text x="435" y="120.0" class="text-label" transform="rotate(-90 435 120.0)">Accuracy</text>
<text x="835" y="120.0" class="text-label" transform="rotate(-90 835 120.0)"># Tokens</text>
<text x="630.0" y="275" class="text-title">(b) SWE Training Curve</text>
<clipPath id="clip_480_20"><rect x="480" y="20" width="300" height="200" /></clipPath>
<g clip-path="url(#clip_480_20)">
<polyline points="480.0,60.0 501.42857142857144,140.0 522.8571428571429,188.0 544.2857142857143,160.0 565.7142857142857,140.0 587.1428571428571,172.0 608.5714285714286,188.0 630.0,180.0 651.4285714285714,164.0 672.8571428571429,164.0 694.2857142857142,140.0 715.7142857142858,120.0 737.1428571428571,120.0 758.5714285714286,92.0 780.0,100.0" class="line-blue-dash" />
<polyline points="480.0,40.0 501.42857142857144,160.0 522.8571428571429,180.0 544.2857142857143,148.0 565.7142857142857,160.0 587.1428571428571,180.0 608.5714285714286,200.0 630.0,212.0 651.4285714285714,196.0 672.8571428571429,180.0 694.2857142857142,148.0 715.7142857142858,156.0 737.1428571428571,148.0 758.5714285714286,148.0 780.0,160.0" class="line-orange-dash" />
<circle cx="480.0" cy="220.0" r="2.5" class="dot-blue" />
<circle cx="501.42857142857144" cy="180.0" r="2.5" class="dot-blue" />
<circle cx="522.8571428571429" cy="170.0" r="2.5" class="dot-blue" />
<circle cx="544.2857142857143" cy="160.0" r="2.5" class="dot-blue" />
<circle cx="565.7142857142857" cy="120.0" r="2.5" class="dot-blue" />
<circle cx="587.1428571428571" cy="170.0" r="2.5" class="dot-blue" />
<circle cx="608.5714285714286" cy="155.0" r="2.5" class="dot-blue" />
<circle cx="630.0" cy="170.0" r="2.5" class="dot-blue" />
<circle cx="651.4285714285714" cy="75.0" r="2.5" class="dot-blue" />
<circle cx="672.8571428571429" cy="110.0" r="2.5" class="dot-blue" />
<circle cx="694.2857142857142" cy="95.0" r="2.5" class="dot-blue" />
<circle cx="715.7142857142858" cy="120.0" r="2.5" class="dot-blue" />
<circle cx="737.1428571428571" cy="95.0" r="2.5" class="dot-blue" />
<circle cx="758.5714285714286" cy="20.0" r="2.5" class="dot-blue" />
<circle cx="780.0" cy="30.0" r="2.5" class="dot-blue" />
<polyline points="480.0,220.0 501.42857142857144,180.0 522.8571428571429,170.0 544.2857142857143,160.0 565.7142857142857,120.0 587.1428571428571,170.0 608.5714285714286,155.0 630.0,170.0 651.4285714285714,75.0 672.8571428571429,110.0 694.2857142857142,95.0 715.7142857142858,120.0 737.1428571428571,95.0 758.5714285714286,20.0 780.0,30.0" class="line-blue" />
<circle cx="480.0" cy="220.0" r="2.5" class="dot-orange" />
<circle cx="501.42857142857144" cy="195.0" r="2.5" class="dot-orange" />
<circle cx="522.8571428571429" cy="145.0" r="2.5" class="dot-orange" />
<circle cx="544.2857142857143" cy="195.0" r="2.5" class="dot-orange" />
<circle cx="565.7142857142857" cy="210.0" r="2.5" class="dot-orange" />
<circle cx="587.1428571428571" cy="160.0" r="2.5" class="dot-orange" />
<circle cx="608.5714285714286" cy="160.0" r="2.5" class="dot-orange" />
<circle cx="630.0" cy="130.0" r="2.5" class="dot-orange" />
<circle cx="651.4285714285714" cy="170.0" r="2.5" class="dot-orange" />
<circle cx="672.8571428571429" cy="145.0" r="2.5" class="dot-orange" />
<circle cx="694.2857142857142" cy="95.0" r="2.5" class="dot-orange" />
<circle cx="715.7142857142858" cy="70.0" r="2.5" class="dot-orange" />
<circle cx="737.1428571428571" cy="110.0" r="2.5" class="dot-orange" />
<circle cx="758.5714285714286" cy="30.0" r="2.5" class="dot-orange" />
<circle cx="780.0" cy="30.0" r="2.5" class="dot-orange" />
<polyline points="480.0,220.0 501.42857142857144,195.0 522.8571428571429,145.0 544.2857142857143,195.0 565.7142857142857,210.0 587.1428571428571,160.0 608.5714285714286,160.0 630.0,130.0 651.4285714285714,170.0 672.8571428571429,145.0 694.2857142857142,95.0 715.7142857142858,70.0 737.1428571428571,110.0 758.5714285714286,30.0 780.0,30.0" class="line-orange" />
</g>
<rect x="490" y="30" width="180" height="40" fill="white" stroke="#ccc" stroke-width="1" />
<line x1="500" y1="42" x2="520" y2="42" class="line-blue" />
<circle cx="510" cy="42" r="2" class="dot-blue" />
<text x="525" y="45" class="text-legend">Single Expert (GPT-5.4)</text>
<line x1="500" y1="58" x2="520" y2="58" class="line-orange" />
<circle cx="510" cy="58" r="2" class="dot-orange" />
<text x="525" y="61" class="text-legend">Council Synthesis</text>
<text x="420" y="320" class="text-title" font-size="16px">Figure 2 | RL training curve of Single Expert and Council Synthesis on BrowseComp and SWE Verified.</text><text x="420" y="340" class="text-title" font-size="16px">The solid and dashed lines denote the accuracy and average output tokens, respectively.</text>
    </svg>