<svg xmlns="http://www.w3.org/2000/svg" viewBox="0 0 860 320" width="860" height="320">
    <defs>
        <style>
            .axis { stroke: black; stroke-width: 1; }
            .grid { stroke: #e0e0e0; stroke-width: 1; stroke-dasharray: 2,2; }
            .text-title { font-family: "Times New Roman", Times, serif; font-size: 14px; text-anchor: middle; }
            .text-label { font-family: "Times New Roman", Times, serif; font-size: 12px; text-anchor: middle; }
            .text-legend { font-family: "Times New Roman", Times, serif; font-size: 11px; }
            .line-blue { stroke: #1f77b4; stroke-width: 1.5; fill: none; }
            .line-orange { stroke: #ff7f0e; stroke-width: 1.5; fill: none; }
            .line-blue-dash { stroke: #1f77b4; stroke-width: 1; fill: none; stroke-dasharray: 3,3; }
            .line-orange-dash { stroke: #ff7f0e; stroke-width: 1; fill: none; stroke-dasharray: 3,3; }
            .dot-blue { fill: #1f77b4; }
            .dot-orange { fill: #ff7f0e; }
            .arch-box { fill: white; stroke: black; stroke-width: 1; rx: 5; ry: 5; }
            .arch-box-filled { fill: #e0e0e0; stroke: black; stroke-width: 1; rx: 5; ry: 5; }
            .arch-text { font-family: Arial, sans-serif; font-size: 10px; text-anchor: middle; dominant-baseline: middle; }
        </style>
    </defs>
    <rect width="100%" height="100%" fill="white"/>
    <line x1="60" y1="20" x2="60" y2="220" class="axis" />
<line x1="60" y1="220" x2="360" y2="220" class="axis" />
<line x1="360" y1="20" x2="360" y2="220" class="axis" />
<line x1="60" y1="20" x2="360" y2="20" class="axis" />
<line x1="60" y1="220.0" x2="360" y2="220.0" class="grid" />
<text x="55" y="224.0" class="text-label" text-anchor="end">0K</text>
<line x1="60" y1="220.0" x2="64" y2="220.0" class="axis" />
<line x1="60" y1="191.42857142857142" x2="360" y2="191.42857142857142" class="grid" />
<text x="55" y="195.42857142857142" class="text-label" text-anchor="end">0.1</text>
<line x1="60" y1="191.42857142857142" x2="64" y2="191.42857142857142" class="axis" />
<line x1="60" y1="162.85714285714286" x2="360" y2="162.85714285714286" class="grid" />
<text x="55" y="166.85714285714286" class="text-label" text-anchor="end">0.2</text>
<line x1="60" y1="162.85714285714286" x2="64" y2="162.85714285714286" class="axis" />
<line x1="60" y1="134.28571428571428" x2="360" y2="134.28571428571428" class="grid" />
<text x="55" y="138.28571428571428" class="text-label" text-anchor="end">0.3</text>
<line x1="60" y1="134.28571428571428" x2="64" y2="134.28571428571428" class="axis" />
<line x1="60" y1="105.71428571428571" x2="360" y2="105.71428571428571" class="grid" />
<text x="55" y="109.71428571428571" class="text-label" text-anchor="end">0.4</text>
<line x1="60" y1="105.71428571428571" x2="64" y2="105.71428571428571" class="axis" />
<line x1="60" y1="77.14285714285714" x2="360" y2="77.14285714285714" class="grid" />
<text x="55" y="81.14285714285714" class="text-label" text-anchor="end">0.5</text>
<line x1="60" y1="77.14285714285714" x2="64" y2="77.14285714285714" class="axis" />
<line x1="60" y1="48.571428571428555" x2="360" y2="48.571428571428555" class="grid" />
<text x="55" y="52.571428571428555" class="text-label" text-anchor="end">0.6</text>
<line x1="60" y1="48.571428571428555" x2="64" y2="48.571428571428555" class="axis" />
<line x1="60" y1="20.0" x2="360" y2="20.0" class="grid" />
<text x="55" y="24.0" class="text-label" text-anchor="end">0.7</text>
<line x1="60" y1="20.0" x2="64" y2="20.0" class="axis" />
<text x="60.0" y="235" class="text-label">0K</text>
<line x1="60.0" y1="216" x2="60.0" y2="220" class="axis" />
<text x="135.0" y="235" class="text-label">32K</text>
<line x1="135.0" y1="216" x2="135.0" y2="220" class="axis" />
<text x="210.0" y="235" class="text-label">64K</text>
<line x1="210.0" y1="216" x2="210.0" y2="220" class="axis" />
<text x="285.0" y="235" class="text-label">96K</text>
<line x1="285.0" y1="216" x2="285.0" y2="220" class="axis" />
<text x="360.0" y="235" class="text-label">128K</text>
<line x1="360.0" y1="216" x2="360.0" y2="220" class="axis" />
<text x="210.0" y="255" class="text-label">Token Position</text>
<text x="15" y="120.0" class="text-label" transform="rotate(-90 15 120.0)">Cost Per Million Tokens ($)</text>
<text x="210.0" y="275" class="text-title">(a) Parallel Prefilling</text>
<circle cx="60.0" cy="205.71428571428572" r="2" class="dot-blue" />
<circle cx="135.0" cy="162.85714285714286" r="2" class="dot-blue" />
<circle cx="210.0" cy="120.0" r="2" class="dot-blue" />
<circle cx="285.0" cy="77.14285714285717" r="2" class="dot-blue" />
<circle cx="360.0" cy="34.28571428571428" r="2" class="dot-blue" />
<polyline points="60.0,205.71428571428572 135.0,162.85714285714286 210.0,120.0 285.0,77.14285714285717 360.0,34.28571428571428" class="line-blue" />
<circle cx="60.0" cy="205.71428571428572" r="2" class="dot-orange" />
<circle cx="135.0" cy="197.14285714285714" r="2" class="dot-orange" />
<circle cx="210.0" cy="188.57142857142856" r="2" class="dot-orange" />
<circle cx="285.0" cy="180.0" r="2" class="dot-orange" />
<circle cx="360.0" cy="171.42857142857142" r="2" class="dot-orange" />
<polyline points="60.0,205.71428571428572 135.0,197.14285714285714 210.0,188.57142857142856 285.0,180.0 360.0,171.42857142857142" class="line-orange" />
<rect x="70" y="30" width="160" height="40" fill="white" stroke="#ccc" stroke-width="1" />
<line x1="80" y1="40" x2="100" y2="40" class="line-blue" />
<circle cx="90" cy="40" r="2" class="dot-blue" />
<text x="105" y="44" class="text-legend">Single Expert</text>
<line x1="80" y1="60" x2="100" y2="60" class="line-orange" />
<circle cx="90" cy="60" r="2" class="dot-orange" />
<text x="105" y="64" class="text-legend">Council Workflow</text>
<line x1="480" y1="20" x2="480" y2="220" class="axis" />
<line x1="480" y1="220" x2="780" y2="220" class="axis" />
<line x1="780" y1="20" x2="780" y2="220" class="axis" />
<line x1="480" y1="20" x2="780" y2="20" class="axis" />
<line x1="480" y1="220.0" x2="780" y2="220.0" class="grid" />
<text x="475" y="224.0" class="text-label" text-anchor="end">0K</text>
<line x1="480" y1="220.0" x2="484" y2="220.0" class="axis" />
<line x1="480" y1="186.66666666666666" x2="780" y2="186.66666666666666" class="grid" />
<text x="475" y="190.66666666666666" class="text-label" text-anchor="end">0.4</text>
<line x1="480" y1="186.66666666666666" x2="484" y2="186.66666666666666" class="axis" />
<line x1="480" y1="153.33333333333331" x2="780" y2="153.33333333333331" class="grid" />
<text x="475" y="157.33333333333331" class="text-label" text-anchor="end">0.8</text>
<line x1="480" y1="153.33333333333331" x2="484" y2="153.33333333333331" class="axis" />
<line x1="480" y1="120.0" x2="780" y2="120.0" class="grid" />
<text x="475" y="124.0" class="text-label" text-anchor="end">1.2</text>
<line x1="480" y1="120.0" x2="484" y2="120.0" class="axis" />
<line x1="480" y1="86.66666666666666" x2="780" y2="86.66666666666666" class="grid" />
<text x="475" y="90.66666666666666" class="text-label" text-anchor="end">1.6</text>
<line x1="480" y1="86.66666666666666" x2="484" y2="86.66666666666666" class="axis" />
<line x1="480" y1="53.333333333333314" x2="780" y2="53.333333333333314" class="grid" />
<text x="475" y="57.333333333333314" class="text-label" text-anchor="end">2.0</text>
<line x1="480" y1="53.333333333333314" x2="484" y2="53.333333333333314" class="axis" />
<line x1="480" y1="20.0" x2="780" y2="20.0" class="grid" />
<text x="475" y="24.0" class="text-label" text-anchor="end">2.4</text>
<line x1="480" y1="20.0" x2="484" y2="20.0" class="axis" />
<text x="480.0" y="235" class="text-label">0K</text>
<line x1="480.0" y1="216" x2="480.0" y2="220" class="axis" />
<text x="555.0" y="235" class="text-label">32K</text>
<line x1="555.0" y1="216" x2="555.0" y2="220" class="axis" />
<text x="630.0" y="235" class="text-label">64K</text>
<line x1="630.0" y1="216" x2="630.0" y2="220" class="axis" />
<text x="705.0" y="235" class="text-label">96K</text>
<line x1="705.0" y1="216" x2="705.0" y2="220" class="axis" />
<text x="780.0" y="235" class="text-label">128K</text>
<line x1="780.0" y1="216" x2="780.0" y2="220" class="axis" />
<text x="630.0" y="255" class="text-label">Token Position</text>
<text x="435" y="120.0" class="text-label" transform="rotate(-90 435 120.0)">Cost Per Million Tokens ($)</text>
<text x="630.0" y="275" class="text-title">(b) Decoding</text>
<circle cx="480.0" cy="211.66666666666666" r="2" class="dot-blue" />
<circle cx="555.0" cy="170.0" r="2" class="dot-blue" />
<circle cx="630.0" cy="128.33333333333331" r="2" class="dot-blue" />
<circle cx="705.0" cy="86.66666666666666" r="2" class="dot-blue" />
<circle cx="780.0" cy="45.0" r="2" class="dot-blue" />
<polyline points="480.0,211.66666666666666 555.0,170.0 630.0,128.33333333333331 705.0,86.66666666666666 780.0,45.0" class="line-blue" />
<circle cx="480.0" cy="211.66666666666666" r="2" class="dot-orange" />
<circle cx="555.0" cy="209.16666666666666" r="2" class="dot-orange" />
<circle cx="630.0" cy="206.66666666666666" r="2" class="dot-orange" />
<circle cx="705.0" cy="204.16666666666666" r="2" class="dot-orange" />
<circle cx="780.0" cy="201.66666666666666" r="2" class="dot-orange" />
<polyline points="480.0,211.66666666666666 555.0,209.16666666666666 630.0,206.66666666666666 705.0,204.16666666666666 780.0,201.66666666666666" class="line-orange" />
<rect x="490" y="30" width="160" height="40" fill="white" stroke="#ccc" stroke-width="1" />
<line x1="500" y1="40" x2="520" y2="40" class="line-blue" />
<circle cx="510" cy="40" r="2" class="dot-blue" />
<text x="525" y="44" class="text-legend">Single Expert</text>
<line x1="500" y1="60" x2="520" y2="60" class="line-orange" />
<circle cx="510" cy="60" r="2" class="dot-orange" />
<text x="525" y="64" class="text-legend">Council Workflow</text>
    </svg>