<svg xmlns="http://www.w3.org/2000/svg" viewBox="0 0 960 510" width="100%" height="100%">
    <defs>
        <style>
            .ln { stroke: black; stroke-width: 1.5; fill: none; }
            .ln-b { stroke: #00A2E8; stroke-width: 1.5; fill: none; }
            .ln-o { stroke: #F26522; stroke-width: 1.5; fill: none; }
            .tm { font-family: "Times New Roman",serif; font-size: 13px; font-style: italic; font-weight: bold; fill: black; }
            .tl { font-family: Arial,sans-serif; font-size: 11px; font-style: italic; fill: #333; }
            .tt { font-family: "Times New Roman",serif; font-size: 15px; text-anchor: middle; fill: black; font-weight: bold; }
            .bw { fill: white; stroke: black; stroke-width: 1.5; rx: 6; ry: 6; }
            .bg { fill: #E6E7E8; stroke: black; stroke-width: 1.5; rx: 4; ry: 4; }
            .ds { fill: white; stroke: black; stroke-width: 1.3; }
        </style>
        <marker id="a" markerWidth="6" markerHeight="6" refX="5" refY="3" orient="auto"><path d="M0,0 L0,6 L6,3z" fill="black"/></marker>
        <marker id="ab" markerWidth="6" markerHeight="6" refX="5" refY="3" orient="auto"><path d="M0,0 L0,6 L6,3z" fill="#00A2E8"/></marker>
        <marker id="ao" markerWidth="6" markerHeight="6" refX="5" refY="3" orient="auto"><path d="M0,0 L0,6 L6,3z" fill="#F26522"/></marker>
    </defs>
    <rect width="100%" height="100%" fill="white"/>
    <rect x="147.5" y="19.0" width="155" height="22" class="bw"/>\n<text x="225" y="34" class="tm" text-anchor="middle">Output Hidden u<tspan dy="3" font-size="9">t</tspan></text>\n<rect x="143.5" y="60.0" width="71" height="22" class="bw"/>\n<rect x="140.5" y="63.0" width="71" height="22" class="bw"/>\n<rect x="137.5" y="66.0" width="71" height="22" class="bw"/>\n<text x="173" y="81" class="tm" text-anchor="middle">{o<tspan dy="3" font-size="9">t,i</tspan>}</text>\n<rect x="30" y="108" width="400" height="26" class="bg"/>\n<text x="225" y="125" class="tt" text-anchor="middle" fill="black">Multi-Head Attention (Core Attention)</text>\n<rect x="56.0" y="155.0" width="126" height="22" class="bw"/>\n<rect x="53.0" y="158.0" width="126" height="22" class="bw"/>\n<rect x="50.0" y="161.0" width="126" height="22" class="bw"/>\n<text x="113" y="176" class="tm" text-anchor="middle">{[q<tspan dy="-5" font-size="9">C</tspan><tspan dy="5" font-size="9">t,i</tspan>; q<tspan dy="-5" font-size="9">R</tspan><tspan dy="5" font-size="9">t,i</tspan>]}</text>\n<rect x="246.0" y="155.0" width="126" height="22" class="bw"/>\n<rect x="243.0" y="158.0" width="126" height="22" class="bw"/>\n<rect x="240.0" y="161.0" width="126" height="22" class="bw"/>\n<text x="303" y="176" class="tm" text-anchor="middle">{[k<tspan dy="-5" font-size="9">C</tspan><tspan dy="5" font-size="9">t,i</tspan>; k<tspan dy="-5" font-size="9">R</tspan><tspan dy="5" font-size="9">t</tspan>]}</text>\n<text x="105" y="205" class="tl" text-anchor="end" fill="black">concatenate</text>\n<text x="295" y="205" class="tl" text-anchor="end" fill="black">concatenate</text>\n<rect x="41.0" y="235.0" width="66" height="22" class="bw"/>\n<rect x="38.0" y="238.0" width="66" height="22" class="bw"/>\n<rect x="35.0" y="241.0" width="66" height="22" class="bw"/>\n<text x="68" y="256" class="tm" text-anchor="middle">{q<tspan dy="-5" font-size="9">C</tspan><tspan dy="5" font-size="9">t,i</tspan>}</text>\n<rect x="141.0" y="235.0" width="66" height="22" class="bw"/>\n<rect x="138.0" y="238.0" width="66" height="22" class="bw"/>\n<rect x="135.0" y="241.0" width="66" height="22" class="bw"/>\n<text x="168" y="256" class="tm" text-anchor="middle">{q<tspan dy="-5" font-size="9">R</tspan><tspan dy="5" font-size="9">t,i</tspan>}</text>\n<rect x="227.5" y="239.0" width="35" height="22" class="bw"/>\n<text x="245" y="254" class="tm" text-anchor="middle">k<tspan dy="-5" font-size="9">R</tspan><tspan dy="5" font-size="9">t</tspan></text>\n<rect x="296.0" y="235.0" width="66" height="22" class="bw"/>\n<rect x="293.0" y="238.0" width="66" height="22" class="bw"/>\n<rect x="290.0" y="241.0" width="66" height="22" class="bw"/>\n<text x="323" y="256" class="tm" text-anchor="middle">{k<tspan dy="-5" font-size="9">C</tspan><tspan dy="5" font-size="9">t,i</tspan>}</text>\n<rect x="381.0" y="235.0" width="66" height="22" class="bw"/>\n<rect x="378.0" y="238.0" width="66" height="22" class="bw"/>\n<rect x="375.0" y="241.0" width="66" height="22" class="bw"/>\n<text x="408" y="256" class="tm" text-anchor="middle">{v<tspan dy="-5" font-size="9">C</tspan><tspan dy="5" font-size="9">t,i</tspan>}</text>\n<rect x="160.0" y="295.0" width="20" height="20" class="bw" rx="3" ry="3"/>\n<circle cx="170" cy="305" r="6" class="ds"/>\n<rect x="235.0" y="295.0" width="20" height="20" class="bw" rx="3" ry="3"/>\n<circle cx="245" cy="305" r="6" class="ds"/>\n<text x="207" y="332" class="tl" text-anchor="middle" fill="black">apply RoPE</text>\n<text x="290" y="310" class="tm" text-anchor="start" fill="#00A2E8">W<tspan dy="-5" font-size="9">UK</tspan><tspan dy="5">c</tspan><tspan dy="-4" font-size="8">KV</tspan><tspan dy="4" font-size="9">t</tspan></text>\n<text x="410" y="310" class="tm" text-anchor="start" fill="#F26522">W<tspan dy="-5" font-size="9">UV</tspan><tspan dy="5">c</tspan><tspan dy="-4" font-size="8">KV</tspan><tspan dy="4" font-size="9">t</tspan></text>\n<rect x="70.0" y="359.0" width="90" height="22" class="bw"/>\n<text x="115" y="374" class="tm" text-anchor="middle">c<tspan dy="-5" font-size="9">Q</tspan><tspan dy="5" font-size="9">t</tspan></text>\n<rect x="300.0" y="359.0" width="90" height="22" class="bw"/>\n<text x="345" y="374" class="tm" text-anchor="middle">c<tspan dy="-5" font-size="9">KV</tspan><tspan dy="5" font-size="9">t</tspan></text>\n<rect x="147.5" y="429.0" width="155" height="22" class="bw"/>\n<text x="225" y="444" class="tm" text-anchor="middle">Input Hidden h<tspan dy="3" font-size="9">t</tspan></text>\n<line x1="225" y1="429" x2="225" y2="415" class="ln" marker-end="url(#a)"/>\n<line x1="115" y1="415" x2="345" y2="415" class="ln"/>\n<line x1="115" y1="415" x2="115" y2="381" class="ln" marker-end="url(#a)"/>\n<line x1="345" y1="415" x2="345" y2="381" class="ln" marker-end="url(#a)"/>\n<line x1="115" y1="359" x2="115" y2="340" class="ln"/>\n<line x1="70" y1="340" x2="170" y2="340" class="ln"/>\n<line x1="70" y1="340" x2="70" y2="261" class="ln" marker-end="url(#a)"/>\n<line x1="170" y1="340" x2="170" y2="315" class="ln" marker-end="url(#a)"/>\n<line x1="345" y1="359" x2="345" y2="340" class="ln"/>\n<line x1="325" y1="340" x2="410" y2="340" class="ln"/>\n<line x1="325" y1="340" x2="325" y2="261" class="ln-b" marker-end="url(#ab)"/>\n<line x1="410" y1="340" x2="410" y2="261" class="ln-o" marker-end="url(#ao)"/>\n<line x1="245" y1="415" x2="245" y2="315" class="ln" marker-end="url(#a)"/>\n<line x1="170" y1="295" x2="170" y2="261" class="ln" marker-end="url(#a)"/>\n<line x1="245" y1="295" x2="245" y2="261" class="ln" marker-end="url(#a)"/>\n<line x1="70" y1="239" x2="70" y2="215" class="ln"/>\n<line x1="170" y1="239" x2="170" y2="215" class="ln"/>\n<line x1="70" y1="215" x2="170" y2="215" class="ln"/>\n<line x1="115" y1="215" x2="115" y2="181" class="ln" marker-end="url(#a)"/>\n<line x1="245" y1="239" x2="245" y2="215" class="ln"/>\n<line x1="325" y1="239" x2="325" y2="215" class="ln"/>\n<line x1="245" y1="215" x2="325" y2="215" class="ln"/>\n<line x1="305" y1="215" x2="305" y2="181" class="ln" marker-end="url(#a)"/>\n<line x1="115" y1="159" x2="115" y2="134" class="ln" marker-end="url(#a)"/>\n<line x1="305" y1="159" x2="305" y2="134" class="ln" marker-end="url(#a)"/>\n<line x1="410" y1="239" x2="410" y2="134" class="ln" marker-end="url(#a)"/>\n<line x1="225" y1="108" x2="175" y2="86" class="ln" marker-end="url(#a)"/>\n<line x1="175" y1="64" x2="175" y2="41" class="ln" marker-end="url(#a)"/>\n<text x="225" y="490" class="tt" text-anchor="middle" fill="black">(a) MHA mode of MLA.</text>\n<rect x="622.5" y="19.0" width="155" height="22" class="bw"/>\n<text x="700" y="34" class="tm" text-anchor="middle">Output Hidden u<tspan dy="3" font-size="9">t</tspan></text>\n<rect x="586.0" y="60.0" width="76" height="22" class="bw"/>\n<rect x="583.0" y="63.0" width="76" height="22" class="bw"/>\n<rect x="580.0" y="66.0" width="76" height="22" class="bw"/>\n<text x="618" y="81" class="tm" text-anchor="middle">{o<tspan dy="-5" font-size="9">C</tspan><tspan dy="5" font-size="9">t,i</tspan>}</text>\n<rect x="820.0" y="64.0" width="50" height="22" class="bw"/>\n<text x="845" y="79" class="tm" text-anchor="middle">{o<tspan dy="3" font-size="9">t,i</tspan>}</text>\n<line x1="665" y1="75" x2="815" y2="75" class="ln-o" marker-end="url(#ao)"/>\n<text x="740" y="66" class="tm" text-anchor="middle" fill="#F26522">W<tspan dy="-5" font-size="9">UV</tspan><tspan dy="5">o</tspan><tspan dy="-4" font-size="8">C</tspan><tspan dy="4" font-size="9">t,i</tspan></text>\n<rect x="505" y="108" width="400" height="26" class="bg"/>\n<text x="700" y="125" class="tt" text-anchor="middle" fill="black">Multi-Query Attention (Core Attention)</text>\n<rect x="531.0" y="155.0" width="126" height="22" class="bw"/>\n<rect x="528.0" y="158.0" width="126" height="22" class="bw"/>\n<rect x="525.0" y="161.0" width="126" height="22" class="bw"/>\n<text x="588" y="176" class="tm" text-anchor="middle">{[q<tspan dy="-5" font-size="9">C</tspan><tspan dy="5" font-size="9">t,i</tspan>; q<tspan dy="-5" font-size="9">R</tspan><tspan dy="5" font-size="9">t,i</tspan>]}</text>\n<rect x="721.0" y="155.0" width="126" height="22" class="bw"/>\n<rect x="718.0" y="158.0" width="126" height="22" class="bw"/>\n<rect x="715.0" y="161.0" width="126" height="22" class="bw"/>\n<text x="778" y="176" class="tm" text-anchor="middle">{[c<tspan dy="-5" font-size="9">KV</tspan><tspan dy="5" font-size="9">t</tspan>; k<tspan dy="-5" font-size="9">R</tspan><tspan dy="5" font-size="9">t</tspan>]}</text>\n<text x="580" y="205" class="tl" text-anchor="end" fill="black">concatenate</text>\n<text x="770" y="205" class="tl" text-anchor="end" fill="black">concatenate</text>\n<rect x="516.0" y="235.0" width="66" height="22" class="bw"/>\n<rect x="513.0" y="238.0" width="66" height="22" class="bw"/>\n<rect x="510.0" y="241.0" width="66" height="22" class="bw"/>\n<text x="543" y="256" class="tm" text-anchor="middle">{q<tspan dy="-5" font-size="9">C</tspan><tspan dy="5" font-size="9">t,i</tspan>}</text>\n<rect x="616.0" y="235.0" width="66" height="22" class="bw"/>\n<rect x="613.0" y="238.0" width="66" height="22" class="bw"/>\n<rect x="610.0" y="241.0" width="66" height="22" class="bw"/>\n<text x="643" y="256" class="tm" text-anchor="middle">{q<tspan dy="-5" font-size="9">R</tspan><tspan dy="5" font-size="9">t,i</tspan>}</text>\n<rect x="702.5" y="239.0" width="35" height="22" class="bw"/>\n<text x="720" y="254" class="tm" text-anchor="middle">k<tspan dy="-5" font-size="9">R</tspan><tspan dy="5" font-size="9">t</tspan></text>\n<rect x="772.5" y="239.0" width="55" height="22" class="bw"/>\n<text x="800" y="254" class="tm" text-anchor="middle">c<tspan dy="-5" font-size="8">KV</tspan><tspan dy="5" font-size="9">t</tspan></text>\n<rect x="857.5" y="239.0" width="55" height="22" class="bw"/>\n<text x="885" y="254" class="tm" text-anchor="middle">c<tspan dy="-5" font-size="8">KV</tspan><tspan dy="5" font-size="9">t</tspan></text>\n<rect x="635.0" y="295.0" width="20" height="20" class="bw" rx="3" ry="3"/>\n<circle cx="645" cy="305" r="6" class="ds"/>\n<rect x="710.0" y="295.0" width="20" height="20" class="bw" rx="3" ry="3"/>\n<circle cx="720" cy="305" r="6" class="ds"/>\n<text x="682" y="332" class="tl" text-anchor="middle" fill="black">apply RoPE</text>\n<text x="530" y="310" class="tm" text-anchor="end" fill="#00A2E8">W<tspan dy="-5" font-size="9">UQ</tspan><tspan dy="5">c</tspan><tspan dy="-4" font-size="8">Q</tspan><tspan dy="4" font-size="9">t</tspan></text>\n<rect x="545.0" y="359.0" width="90" height="22" class="bw"/>\n<text x="590" y="374" class="tm" text-anchor="middle">c<tspan dy="-5" font-size="9">Q</tspan><tspan dy="5" font-size="9">t</tspan></text>\n<rect x="775.0" y="359.0" width="90" height="22" class="bw"/>\n<text x="820" y="374" class="tm" text-anchor="middle">c<tspan dy="-5" font-size="9">KV</tspan><tspan dy="5" font-size="9">t</tspan></text>\n<rect x="622.5" y="429.0" width="155" height="22" class="bw"/>\n<text x="700" y="444" class="tm" text-anchor="middle">Input Hidden h<tspan dy="3" font-size="9">t</tspan></text>\n<line x1="700" y1="429" x2="700" y2="415" class="ln" marker-end="url(#a)"/>\n<line x1="590" y1="415" x2="885" y2="415" class="ln"/>\n<line x1="590" y1="415" x2="590" y2="381" class="ln" marker-end="url(#a)"/>\n<line x1="820" y1="415" x2="820" y2="381" class="ln" marker-end="url(#a)"/>\n<line x1="885" y1="415" x2="885" y2="261" class="ln" marker-end="url(#a)"/>\n<line x1="590" y1="359" x2="590" y2="340" class="ln"/>\n<line x1="545" y1="340" x2="645" y2="340" class="ln"/>\n<line x1="545" y1="340" x2="545" y2="261" class="ln-b" marker-end="url(#ab)"/>\n<line x1="645" y1="340" x2="645" y2="315" class="ln" marker-end="url(#a)"/>\n<line x1="820" y1="359" x2="820" y2="340" class="ln"/>\n<line x1="800" y1="340" x2="820" y2="340" class="ln"/>\n<line x1="800" y1="340" x2="800" y2="261" class="ln" marker-end="url(#a)"/>\n<line x1="720" y1="415" x2="720" y2="315" class="ln" marker-end="url(#a)"/>\n<line x1="645" y1="295" x2="645" y2="261" class="ln" marker-end="url(#a)"/>\n<line x1="720" y1="295" x2="720" y2="261" class="ln" marker-end="url(#a)"/>\n<line x1="545" y1="239" x2="545" y2="215" class="ln"/>\n<line x1="645" y1="239" x2="645" y2="215" class="ln"/>\n<line x1="545" y1="215" x2="645" y2="215" class="ln"/>\n<line x1="590" y1="215" x2="590" y2="181" class="ln" marker-end="url(#a)"/>\n<line x1="720" y1="239" x2="720" y2="215" class="ln"/>\n<line x1="800" y1="239" x2="800" y2="215" class="ln"/>\n<line x1="720" y1="215" x2="800" y2="215" class="ln"/>\n<line x1="780" y1="215" x2="780" y2="181" class="ln" marker-end="url(#a)"/>\n<line x1="590" y1="159" x2="590" y2="134" class="ln" marker-end="url(#a)"/>\n<line x1="780" y1="159" x2="780" y2="134" class="ln" marker-end="url(#a)"/>\n<line x1="885" y1="239" x2="885" y2="134" class="ln" marker-end="url(#a)"/>\n<line x1="650" y1="108" x2="620" y2="86" class="ln" marker-end="url(#a)"/>\n<line x1="620" y1="64" x2="670" y2="41" class="ln" marker-end="url(#a)"/>\n<line x1="845" y1="64" x2="770" y2="41" class="ln" marker-end="url(#a)"/>\n<text x="700" y="490" class="tt" text-anchor="middle" fill="black">(b) MQA mode of MLA.</text>
    </svg>