<svg xmlns="http://www.w3.org/2000/svg" viewBox="0 0 880 440" width="880" height="440">
    <defs>
        <style>
            .axis { stroke: black; stroke-width: 1; }
            .axis-bold { stroke: black; stroke-width: 1.2; fill: none; }
            .grid { stroke: #e0e0e0; stroke-width: 1; stroke-dasharray: 2,2; }
            .text-title { font-family: "Times New Roman", Times, serif; font-size: 14px; text-anchor: middle; }
            .text-label { font-family: "Arial", sans-serif; font-size: 10px; text-anchor: middle; }
            .text-legend { font-family: "Arial", sans-serif; font-size: 10px; }
            .line-blue { stroke: #1f77b4; stroke-width: 1.5; fill: none; }
            .line-orange { stroke: #ff7f0e; stroke-width: 1.5; fill: none; }
            .line-blue-dash { stroke: #1f77b4; stroke-width: 1; fill: none; stroke-dasharray: 3,3; }
            .line-orange-dash { stroke: #ff7f0e; stroke-width: 1; fill: none; stroke-dasharray: 3,3; }
            .dot-blue { fill: #1f77b4; }
            .dot-orange { fill: #ff7f0e; }
        </style>
    </defs>
    <rect width="100%" height="100%" fill="white"/>
    
    <defs>
        <style>
            .line-norm { stroke: black; stroke-width: 1.2; fill: none; }
            .line-blue { stroke: #00A2E8; stroke-width: 1.2; fill: none; }
            .line-orange { stroke: #F26522; stroke-width: 1.2; fill: none; }
            .text-math { font-family: "Times New Roman", Times, serif; font-size: 13px; font-style: italic; font-weight: bold; }
            .text-label { font-family: Arial, sans-serif; font-size: 11px; text-anchor: middle; font-style: italic; }
            .text-title { font-family: "Times New Roman", Times, serif; font-size: 15px; text-anchor: middle; }
            .box-white { fill: white; stroke: black; stroke-width: 1.2; rx: 8; ry: 8; }
            .box-gray { fill: #E6E7E8; stroke: black; stroke-width: 1.2; rx: 4; ry: 4; }
            .circle-node { fill: white; stroke: black; stroke-width: 1.2; }
            .dot-small { fill: white; stroke: black; stroke-width: 1.2; }
        </style>
        
        <marker id="arrow" markerWidth="6" markerHeight="6" refX="5" refY="3" orient="auto" markerUnits="strokeWidth">
            <path d="M0,0 L0,6 L6,3 z" fill="black" />
        </marker>
        <marker id="arrow-blue" markerWidth="6" markerHeight="6" refX="5" refY="3" orient="auto" markerUnits="strokeWidth">
            <path d="M0,0 L0,6 L6,3 z" fill="#00A2E8" />
        </marker>
        <marker id="arrow-orange" markerWidth="6" markerHeight="6" refX="5" refY="3" orient="auto" markerUnits="strokeWidth">
            <path d="M0,0 L0,6 L6,3 z" fill="#F26522" />
        </marker>

        <g id="hidden-node">
            <rect x="0" y="0" width="140" height="22" class="box-white" />
            <circle cx="20" cy="11" r="6" class="dot-small"/>
            <circle cx="40" cy="11" r="6" class="dot-small"/>
            <text x="70" y="15" font-family="Arial" font-size="12px" text-anchor="middle">. . .</text>
            <circle cx="100" cy="11" r="6" class="dot-small"/>
            <circle cx="120" cy="11" r="6" class="dot-small"/>
        </g>
        
        <g id="short-node">
            <rect x="0" y="0" width="90" height="22" class="box-white" />
            <circle cx="20" cy="11" r="6" class="dot-small"/>
            <text x="45" y="15" font-family="Arial" font-size="12px" text-anchor="middle">. . .</text>
            <circle cx="70" cy="11" r="6" class="dot-small"/>
        </g>

        <g id="vshort-node">
            <rect x="0" y="0" width="50" height="22" class="box-white" />
            <circle cx="15" cy="11" r="6" class="dot-small"/>
            <circle cx="35" cy="11" r="6" class="dot-small"/>
        </g>

        <g id="rope-node">
            <rect x="0" y="0" width="22" height="22" class="box-white" rx="4" ry="4" />
            <circle cx="11" cy="11" r="7" class="dot-small"/>
        </g>

        <g id="stack-node">
            <rect x="6" y="0" width="70" height="22" class="box-white" />
            <rect x="3" y="3" width="70" height="22" class="box-white" />
            <rect x="0" y="6" width="70" height="22" class="box-white" />
            <circle cx="20" cy="17" r="6" class="dot-small"/>
            <circle cx="50" cy="17" r="6" class="dot-small"/>
        </g>
        
        <g id="wide-stack-node">
            <rect x="6" y="0" width="90" height="22" class="box-white" />
            <rect x="3" y="3" width="90" height="22" class="box-white" />
            <rect x="0" y="6" width="90" height="22" class="box-white" />
            <circle cx="20" cy="17" r="6" class="dot-small"/>
            <circle cx="45" cy="17" r="6" class="dot-small"/>
            <circle cx="70" cy="17" r="6" class="dot-small"/>
        </g>
    </defs>
    
    <!-- LEFT PANEL: MHA -->
    <g transform="translate(10, 40)">
        <use href="#hidden-node" x="150" y="320" />
        <text x="145" y="335" class="text-math" text-anchor="end">Input Hidden h<tspan dy="3" font-size="9px">t</tspan></text>
        
        <path d="M 220,320 L 220,295" class="line-norm" marker-end="url(#arrow)"/>
        <path d="M 120,295 L 380,295" class="line-norm" />
        
        <!-- Left Branch (Q) -->
        <path d="M 120,295 L 120,280" class="line-norm" marker-end="url(#arrow)" />
        <use href="#short-node" x="75" y="258" />
        <text x="175" y="273" class="text-math">c<tspan dy="-6" font-size="9px">Q</tspan><tspan dy="6" font-size="9px">t</tspan></text>
        
        <path d="M 120,258 L 120,230" class="line-norm" />
        <path d="M 70,230 L 170,230" class="line-norm" />
        
        <path d="M 70,230 L 70,200" class="line-norm" marker-end="url(#arrow)" />
        <use href="#stack-node" x="35" y="172" />
        <text x="30" y="185" class="text-math" text-anchor="end">{q<tspan dy="-6" font-size="9px">C</tspan><tspan dy="6" font-size="9px">t,i</tspan>}</text>
        
        <path d="M 170,230 L 170,200" class="line-norm" marker-end="url(#arrow)" />
        <use href="#stack-node" x="135" y="172" />
        <text x="215" y="185" class="text-math" text-anchor="start">{q<tspan dy="-6" font-size="9px">R</tspan><tspan dy="6" font-size="9px">t,i</tspan>}</text>
        <text x="170" y="215" class="text-label">apply RoPE</text>
        
        <path d="M 70,172 L 70,140" class="line-norm" />
        <path d="M 170,172 L 170,140" class="line-norm" />
        <path d="M 70,140 L 170,140" class="line-norm" />
        <path d="M 120,140 L 120,120" class="line-norm" marker-end="url(#arrow)" />
        <text x="90" y="130" class="text-label">concatenate</text>
        
        <use href="#wide-stack-node" x="75" y="92" />
        <text x="65" y="105" class="text-math" text-anchor="end">{[q<tspan dy="-6" font-size="9px">C</tspan><tspan dy="6" font-size="9px">t,i</tspan>; q<tspan dy="-6" font-size="9px">R</tspan><tspan dy="6" font-size="9px">t,i</tspan>]}</text>
        <path d="M 120,92 L 120,70" class="line-norm" marker-end="url(#arrow)" />
        
        <!-- Right Branch (KV) -->
        <path d="M 320,295 L 320,280" class="line-norm" marker-end="url(#arrow)" />
        <use href="#short-node" x="275" y="258" />
        <text x="265" y="273" class="text-math" text-anchor="end">c<tspan dy="-6" font-size="9px">KV</tspan><tspan dy="6" font-size="9px">t</tspan></text>
        
        <path d="M 220,295 L 220,225" class="line-norm" marker-end="url(#arrow)" />
        <use href="#rope-node" x="209" y="203" />
        <text x="200" y="215" class="text-math" text-anchor="end">k<tspan dy="-6" font-size="9px">R</tspan><tspan dy="6" font-size="9px">t</tspan></text>
        <text x="180" y="240" class="text-label">apply RoPE</text>
        <path d="M 220,203 L 220,140" class="line-norm" />
        
        <path d="M 320,258 L 320,230" class="line-norm" />
        <path d="M 270,230 L 370,230" class="line-norm" />
        
        <path d="M 270,230 L 270,200" class="line-blue" marker-end="url(#arrow-blue)" />
        <text x="235" y="215" class="text-math" fill="#00A2E8">W<tspan dy="-6" font-size="9px">UK</tspan><tspan dy="6" font-size="9px">c<tspan dy="-5">KV</tspan><tspan dy="5">t</tspan></tspan></text>
        <use href="#stack-node" x="235" y="172" />
        <text x="230" y="185" class="text-math" text-anchor="end">{k<tspan dy="-6" font-size="9px">C</tspan><tspan dy="6" font-size="9px">t,i</tspan>}</text>
        
        <path d="M 370,230 L 370,200" class="line-orange" marker-end="url(#arrow-orange)" />
        <text x="335" y="215" class="text-math" fill="#F26522">W<tspan dy="-6" font-size="9px">UV</tspan><tspan dy="6" font-size="9px">c<tspan dy="-5">KV</tspan><tspan dy="5">t</tspan></tspan></text>
        <use href="#stack-node" x="335" y="172" />
        <text x="415" y="185" class="text-math" text-anchor="start">{v<tspan dy="-6" font-size="9px">C</tspan><tspan dy="6" font-size="9px">t,i</tspan>}</text>
        
        <path d="M 270,172 L 270,140" class="line-norm" />
        <path d="M 220,140 L 270,140" class="line-norm" />
        <path d="M 245,140 L 245,120" class="line-norm" marker-end="url(#arrow)" />
        <text x="215" y="130" class="text-label">concatenate</text>
        
        <use href="#wide-stack-node" x="200" y="92" />
        <text x="190" y="105" class="text-math" text-anchor="end">{[k<tspan dy="-6" font-size="9px">C</tspan><tspan dy="6" font-size="9px">t,i</tspan>; k<tspan dy="-6" font-size="9px">R</tspan><tspan dy="6" font-size="9px">t</tspan>]}</text>
        <path d="M 245,92 L 245,70" class="line-norm" marker-end="url(#arrow)" />
        
        <path d="M 370,172 L 370,70" class="line-norm" marker-end="url(#arrow)" />
        
        <rect x="20" y="45" width="380" height="25" class="box-gray" />
        <text x="210" y="62" class="text-title" font-family="Arial" font-size="14px">Multi-Head Attention (Core Attention)</text>
        
        <path d="M 210,45 L 210,25" class="line-norm" marker-end="url(#arrow)" />
        <use href="#stack-node" x="175" y="-3" />
        <text x="170" y="10" class="text-math" text-anchor="end">{o<tspan dy="6" font-size="9px">t,i</tspan>}</text>
        
        <path d="M 210,-3 L 210,-20" class="line-norm" marker-end="url(#arrow)" />
        <use href="#hidden-node" x="140" y="-42" />
        <text x="135" y="-27" class="text-math" text-anchor="end">Output Hidden u<tspan dy="3" font-size="9px">t</tspan></text>
        <text x="210" y="375" class="text-title">(a) MHA mode of MLA.</text>
    </g>
    
    <!-- RIGHT PANEL: MQA -->
    <g transform="translate(460, 40)">
        <use href="#hidden-node" x="140" y="320" />
        <text x="135" y="335" class="text-math" text-anchor="end">Input Hidden h<tspan dy="3" font-size="9px">t</tspan></text>
        
        <path d="M 210,320 L 210,295" class="line-norm" marker-end="url(#arrow)"/>
        <path d="M 120,295 L 360,295" class="line-norm" />
        
        <path d="M 120,295 L 120,280" class="line-norm" marker-end="url(#arrow)" />
        <use href="#short-node" x="75" y="258" />
        <text x="175" y="273" class="text-math">c<tspan dy="-6" font-size="9px">Q</tspan><tspan dy="6" font-size="9px">t</tspan></text>
        
        <path d="M 120,258 L 120,230" class="line-norm" />
        <path d="M 70,230 L 170,230" class="line-norm" />
        
        <path d="M 70,230 L 70,200" class="line-blue" marker-end="url(#arrow-blue)" />
        <text x="35" y="215" class="text-math" fill="#00A2E8">W<tspan dy="-6" font-size="9px">UK</tspan><tspan dy="6" font-size="9px">q<tspan dy="-5">C</tspan><tspan dy="5">t,i</tspan></tspan></text>
        <use href="#stack-node" x="35" y="172" />
        <text x="30" y="185" class="text-math" text-anchor="end">{q<tspan dy="-6" font-size="9px">C</tspan><tspan dy="6" font-size="9px">t,i</tspan>}</text>
        
        <path d="M 170,230 L 170,200" class="line-norm" marker-end="url(#arrow)" />
        <use href="#stack-node" x="135" y="172" />
        <text x="215" y="185" class="text-math" text-anchor="start">{q<tspan dy="-6" font-size="9px">R</tspan><tspan dy="6" font-size="9px">t,i</tspan>}</text>
        <text x="170" y="215" class="text-label">apply RoPE</text>
        
        <path d="M 70,172 L 70,140" class="line-norm" />
        <path d="M 170,172 L 170,140" class="line-norm" />
        <path d="M 70,140 L 170,140" class="line-norm" />
        <path d="M 120,140 L 120,120" class="line-norm" marker-end="url(#arrow)" />
        <text x="90" y="130" class="text-label">concatenate</text>
        
        <use href="#wide-stack-node" x="75" y="92" />
        <text x="65" y="105" class="text-math" text-anchor="end">{[q<tspan dy="-6" font-size="9px">C</tspan><tspan dy="6" font-size="9px">t,i</tspan>; q<tspan dy="-6" font-size="9px">R</tspan><tspan dy="6" font-size="9px">t,i</tspan>]}</text>
        <path d="M 120,92 L 120,70" class="line-norm" marker-end="url(#arrow)" />
        
        <path d="M 290,295 L 290,280" class="line-norm" marker-end="url(#arrow)" />
        <use href="#short-node" x="245" y="258" />
        <text x="235" y="273" class="text-math" text-anchor="end">c<tspan dy="-6" font-size="9px">KV</tspan><tspan dy="6" font-size="9px">t</tspan></text>
        
        <path d="M 210,295 L 210,225" class="line-norm" marker-end="url(#arrow)" />
        <use href="#rope-node" x="199" y="203" />
        <text x="190" y="215" class="text-math" text-anchor="end">k<tspan dy="-6" font-size="9px">R</tspan><tspan dy="6" font-size="9px">t</tspan></text>
        <text x="170" y="240" class="text-label">apply RoPE</text>
        <path d="M 210,203 L 210,140" class="line-norm" />
        
        <path d="M 290,258 L 290,140" class="line-norm" />
        <path d="M 210,140 L 290,140" class="line-norm" />
        <path d="M 250,140 L 250,120" class="line-norm" marker-end="url(#arrow)" />
        <text x="280" y="130" class="text-label">concatenate</text>
        
        <use href="#short-node" x="215" y="92" />
        <text x="205" y="105" class="text-math" text-anchor="end">{[c<tspan dy="-6" font-size="9px">KV</tspan><tspan dy="6" font-size="9px">t</tspan>; k<tspan dy="-6" font-size="9px">R</tspan><tspan dy="6" font-size="9px">t</tspan>]}</text>
        <path d="M 250,92 L 250,70" class="line-norm" marker-end="url(#arrow)" />
        
        <path d="M 360,295 L 360,70" class="line-norm" marker-end="url(#arrow)" />
        
        <rect x="20" y="45" width="380" height="25" class="box-gray" />
        <text x="210" y="62" class="text-title" font-family="Arial" font-size="14px">Multi-Query Attention (Core Attention)</text>
        
        <path d="M 140,45 L 140,25" class="line-norm" marker-end="url(#arrow)" />
        <use href="#wide-stack-node" x="95" y="-3" />
        <text x="85" y="10" class="text-math" text-anchor="end">{o<tspan dy="-6" font-size="9px">C</tspan><tspan dy="6" font-size="9px">t,i</tspan>}</text>
        
        <path d="M 185,8 L 295,8" class="line-orange" marker-end="url(#arrow-orange)" />
        <text x="240" y="2" class="text-math" fill="#F26522">W<tspan dy="-6" font-size="9px">UV</tspan><tspan dy="6" font-size="9px">o<tspan dy="-5">C</tspan><tspan dy="5">t,i</tspan></tspan></text>
        
        <use href="#vshort-node" x="295" y="-3" />
        <text x="355" y="10" class="text-math" text-anchor="start">{o<tspan dy="6" font-size="9px">t,i</tspan>}</text>
        
        <path d="M 140,-3 L 140,-20" class="line-norm" marker-end="url(#arrow)" />
        <path d="M 320,-3 L 320,-20" class="line-norm" marker-end="url(#arrow)" />
        
        <use href="#hidden-node" x="140" y="-42" />
        <text x="135" y="-27" class="text-math" text-anchor="end">Output Hidden u<tspan dy="3" font-size="9px">t</tspan></text>
        
        <text x="210" y="375" class="text-title">(b) MQA mode of MLA.</text>
    </g>

    </svg>